<svg xmlns="http://www.w3.org/2000/svg" class="ipc-icon ipc-icon--clear" id="iconContext-clear" role="presentation" fill="currentColor" viewBox="0 0 24 24" width="24" height="24"><path fill="none" d="M 0 0 h 24 v 24 H 0 V 0 Z"/><path d="M 18.3 5.71 a 0.996 0.996 0 0 0 -1.41 0 L 12 10.59 L 7.11 5.7 A 0.996 0.996 0 1 0 5.7 7.11 L 10.59 12 L 5.7 16.89 a 0.996 0.996 0 1 0 1.41 1.41 L 12 13.41 l 4.89 4.89 a 0.996 0.996 0 1 0 1.41 -1.41 L 13.41 12 l 4.89 -4.89 c 0.38 -0.38 0.38 -1.02 0 -1.4 Z"/></svg>